<svg xmlns="http://www.w3.org/2000/svg" xml:space="preserve" width="734.763" height="140.627" viewBox="0 0 194.406 37.207"><script/><defs><clipPath id="a" clipPathUnits="userSpaceOnUse"><path d="M0 285h595.28V0H0Z"/></clipPath></defs><g style="fill:#494948;fill-opacity:1"><g clip-path="url(#a)" style="fill:#494948;fill-opacity:1" transform="matrix(.35278 0 0 -.35278 -8.803 69.6)"><g style="fill:#494948;fill-opacity:1"><path d="M0 0h40.247c10.724 0 19.495-7.436 19.495-16.538v-40.188H44.521v35.507c0 5.489-4.789 9.961-10.62 9.961l-6.162.004v-45.472H12.508v45.472H6.343c-5.838 0-10.617-4.476-10.617-9.965v-35.507h-15.224v40.188C-19.498-7.436-10.718-.004 0-.004zm-119.707 0h36.795v-11.254h-30.445c-5.845 0-10.627-4.476-10.627-9.965v-14.249c0-5.483 4.779-9.972 10.627-9.972h30.445v-11.254h-36.795c-10.724 0-19.495 7.443-19.495 16.537v23.619c0 9.102 8.771 16.534 19.495 16.534zm59.801 0h36.904v-11.254h-30.561c-5.838 0-10.623-4.476-10.623-9.965v-5.573h41.184v-11.251h-41.184v-18.683h-15.225v40.188c0 9.102 8.781 16.534 19.505 16.534zm267.324 0h27.875c10.711 0 19.495-7.436 19.495-16.538v-23.619c0-9.091-8.784-16.537-19.495-16.537h-27.875c-10.711 0-19.491 7.443-19.491 16.537v23.619c0 9.102 8.78 16.534 19.491 16.534zm6.35-11.254c-5.841 0-10.627-4.476-10.627-9.965v-14.249c0-5.483 4.786-9.972 10.627-9.972h15.172c5.834 0 10.62 4.489 10.62 9.972v14.249c0 5.489-4.786 9.961-10.62 9.961zM82.748 0h27.864c10.721 0 19.502-7.436 19.502-16.538l.007-23.619c0-9.091-8.788-16.537-19.509-16.537H82.748c-10.721 0-19.495 7.443-19.495 16.537v23.619c0 9.102 8.774 16.534 19.495 16.534zm6.339-11.254c-5.831 0-10.61-4.476-10.61-9.965v-14.249c0-5.483 4.772-9.972 10.61-9.972h15.183c5.83 0 10.616 4.489 10.616 9.972v14.249c0 5.489-4.789 9.961-10.616 9.961zm62.302-45.482v45.405h-17.785V0h50.819v-11.331h-17.416v-45.405z" style="fill:#494948;fill-opacity:1;fill-rule:evenodd;stroke:none" transform="translate(321.239 176.452)"/></g><g style="fill:#494948;fill-opacity:1"><path d="M0 0c-33.978 0-61.521-23.608-61.521-52.735 0-29.124 27.543-52.735 61.521-52.735 33.98 0 61.526 23.611 61.526 52.735C61.526-23.608 33.98 0 0 0m0-95.502c28.582 0 51.758 19.155 51.758 42.767 0 2.821-.332 5.571-.963 8.236-6.292-1.212-18.223-3.298-24.712-3.143-.993-.026-1.989-.041-2.976-.041a92.4 92.4 0 0 0-14.662 1.145l-.754.117c-4.533.73-9.22 1.471-13.916 1.471-3.29 0-6.29-.363-9.16-1.102l-1.326-.341-4.119-11.556 2.121.175c.049 0 4.976.402 10.86.4 5.438 0 9.892-.32 13.242-.979 4.979-.968 10.031-1.438 15.444-1.438 6.082 0 12.594.581 20.914 1.877-.833-3.936-2.563-7.307-5.078-9.826-3.583-3.59-8.821-5.335-16.026-5.335-4.685 0-9.467.741-13.355 1.348l-1.566.24c-.855.136-1.719.267-2.581.397-5.7.819-10.044 1.19-14.094 1.188-5.855 0-11.139-.775-16.61-2.428l-.429-.127-14.61-4.571C-33.254-88.19-17.668-95.502 0-95.502M0-9.966c18.794 0 35.252-8.283 44.317-20.662a151 151 0 0 0-9.229-1.3c-5.776-.553-11.469-.754-15.787-.512-4.538.253-8.726.758-12.774 1.246-5.242.633-10.195 1.229-15.396 1.229-1.486 0-2.907-.052-4.337-.149-3.179-.22-6.188-.851-9.249-1.529-3.957-.877-6.326-1.929-9.069-5.549a17.1 17.1 0 0 1-2.441-4.346l-.555-1.447a105 105 0 0 1-1.264-3.292c-.43-1.196-.853-2.358-1.272-3.516l-.009.028-4.449-12.214c-1.292-3.525-2.601-7.085-3.981-10.882.005-.011.009-.015.013-.022l-.065-.181c-3.963 6.043-6.209 12.97-6.209 20.329C-51.756-29.112-28.585-9.966 0-9.966" style="fill:#494948;fill-opacity:1;fill-rule:evenodd;stroke:none" transform="translate(86.475 197.293)"/></g></g></g></svg>