<svg xmlns="http://www.w3.org/2000/svg" width="410.001" height="149.847" version="1.0" viewBox="0 0 328.001 119.878"><script/><g style="font-size:114.53143311px;font-style:normal;font-variant:normal;font-weight:700;font-stretch:normal;text-align:start;line-height:125%;letter-spacing:0;word-spacing:0;writing-mode:lr-tb;text-anchor:start;fill:#512f1a;fill-opacity:1;stroke:#512f1a;stroke-width:2.4000001;stroke-miterlimit:4;stroke-opacity:1;font-family:Gill Sans MT;-inkscape-font-specification:Gill Sans MT Bold"><path d="M392.844 618.969c-16.812 0-30.411 4.963-40.813 14.906-10.401 9.943-15.594 21.57-15.594 34.844 0 13.504 5.216 25.164 15.688 34.968s24.048 14.688 40.719 14.688c16.483 0 29.98-4.93 40.5-14.781s15.78-21.463 15.781-34.875c0-13.227-5.184-24.846-15.562-34.813-10.379-9.966-23.955-14.937-40.72-14.937zm389.969 0c-16.812 0-30.411 4.963-40.813 14.906s-15.625 21.57-15.625 34.844c0 13.504 5.247 25.164 15.719 34.968s24.048 14.688 40.718 14.688c16.483 0 29.981-4.93 40.5-14.781 10.52-9.851 15.782-21.463 15.782-34.875 0-13.227-5.185-24.846-15.563-34.813-10.378-9.966-23.954-14.937-40.718-14.937zm386.78 0c-17.61 0-31.862 4.85-42.78 14.562s-16.376 21.548-16.376 35.469c0 13.92 5.177 25.621 15.532 35.125 10.354 9.504 24.25 14.25 41.719 14.25 13.477 0 26.383-3.196 38.687-9.625v-21.156c-9.298 4.486-16.304 7.37-21 8.687-4.696 1.318-9.585 1.969-14.656 1.969-10.238 0-18.637-2.779-25.188-8.375s-9.812-12.71-9.812-21.312q0-12.835 9.969-21.125c6.644-5.527 15.184-8.282 25.656-8.282 10.66 0 21.978 3.293 33.906 9.907V627.5c-9.72-5.688-21.615-8.531-35.656-8.531zm373.626 0c-17.61 0-31.895 4.85-42.813 14.562s-16.375 21.548-16.375 35.469c0 13.92 5.177 25.621 15.532 35.125 10.354 9.504 24.28 14.25 41.75 14.25 13.477 0 26.352-3.196 38.656-9.625v-21.156c-9.298 4.486-16.273 7.37-20.969 8.687-4.696 1.318-9.584 1.969-14.656 1.969-10.238 0-18.637-2.779-25.188-8.375s-9.812-12.71-9.812-21.312c0-8.556 3.292-15.599 9.937-21.125 6.645-5.527 15.216-8.282 25.688-8.282 10.66 0 21.947 3.293 33.875 9.907V627.5c-9.721-5.688-21.584-8.531-35.625-8.531zM133 620.219v96.906h24.5v-60.5l26.563 30.406h3.75l26.53-30.406v60.5h24.532v-96.906h-21.344l-31.625 35.937-31.562-35.937zm406.938 0v17.75h35.625v79.156h24.53v-79.156h35.626v-17.75zm396.937 0v96.906h24.5v-39.344h7.031c3.24 0 6.284 1.3 9.125 3.844s6.25 8.278 10.219 17.25 6.747 15.059 8.344 18.25h27a1573 1573 0 0 1-12.875-27.469c-4.438-9.712-9.148-15.639-14.125-17.812 11.27-5.134 16.906-13.067 16.906-23.75 0-7.724-2.974-14.285-8.937-19.719-5.965-5.434-13.718-8.156-23.25-8.156zm358.094 0 38.812 51.625v45.281h24.532v-45.281l38.812-51.625h-29.594l-21.468 30.468-21.344-30.468zm384.625 0v96.906h75v-17.75h-50.5v-79.156zm169.031 0v96.906h72.563v-17.75h-48.032v-23.312h44.875v-17.75h-44.875v-20.344h47.063v-17.75zm-887.25 17.75h12.406c9.345 0 14 3.661 14 10.968q.002 5.341-3.625 8.22c-2.418 1.919-5.68 2.874-9.812 2.874h-12.969zm-568.531 1.187c9.298 0 16.786 2.714 22.469 8.125s8.53 12.558 8.53 21.438c0 8.833-2.848 15.972-8.53 21.406-5.683 5.434-13.171 8.125-22.47 8.125-9.344 0-16.856-2.69-22.562-8.125-5.705-5.434-8.562-12.573-8.562-21.406 0-8.88 2.857-16.027 8.562-21.438 5.706-5.41 13.218-8.125 22.563-8.125zm389.969 0c9.298 0 16.786 2.714 22.468 8.125s8.531 12.558 8.532 21.438c0 8.833-2.85 15.972-8.532 21.406s-13.17 8.125-22.468 8.125c-9.346 0-16.889-2.69-22.594-8.125-5.706-5.434-8.532-12.573-8.532-21.406 0-8.88 2.826-16.027 8.532-21.438s13.248-8.125 22.593-8.125z" style="stroke-width:3" transform="translate(-3.18 -1.75)scale(.1634)"/></g><g style="fill:#000;stroke:none"><path d="M694.5 35.188c-18.484.03-36.687.437-46.375 1.187C575.5 42 520.625 62 485.25 95.5l-10.875 10.375-24.375 1.5c-78.75 4.875-126.875 18.125-159.25 43.875-26.875 21.375-37.25 50-28.625 79.125 2.875 9.75 5.875 14.875 13.625 23.25 16.875 18.25 41.25 26.25 76 24.75 30.125-1.25 51.625-9.125 67-24.625 7.5-7.5 13.75-16.75 12.375-18.125-.375-.25-4.75.5-9.75 1.875-23.25 6-52.75 6.625-66.5 1.375-16.5-6.25-23.125-15.375-22.125-29.875.875-11.5 5-19.25 16-29.375 18.875-17.5 55.875-31.375 94.25-35.375 7.75-.75 8.625-.625 7.875 1.25-4.375 11.375-7.75 36.5-6.625 49.5 3.625 40.625 23.625 69.875 64 93.25 2.125 1.25 2 2-3.125 13.125-15 32.875-36.625 67.25-60 95.25-44.625 53.375-96.5 89-148 101.5-34.5 8.5-70.5 9.125-99 1.875-12.5-3.25-32.625-12.875-42.5-20.5-30.125-23.125-41.25-61.25-26.375-90.5 9.25-18.25 33.625-34.5 59.75-39.75 14.125-2.875 39.375-2 47.25 1.5 11.75 5.375 18 15.625 15 24.75-4.5 13.875-20 20.75-51.125 22.75-14.5 1-14.5 1-2.125 9.875 10.625 7.5 23.375 13.75 36.5 17.5 8.875 2.625 14.75 3.5 29.25 4 28.375 1.125 46.125-3.5 63.125-16.25 7.25-5.375 9.5-8 13.125-15 3.75-7.5 4.25-9.75 4.25-17.5C343.875 347 308.375 322 249.5 314.25c-20.5-2.75-58.25-2.75-77 0-40.125 5.625-72.75 19.75-96.125 41.5-23.25 21.5-34 46.375-32.25 74.25 3.75 56.125 46 94.875 124.75 114.25 21.75 5.25 37.5 7.125 68.75 7.875 50.375 1.25 91.375-4.75 136.5-19.75 67-22.375 132.875-72.5 178-135.625C564.75 379.125 586 346 599 323.625l10.125-17.375h7.75c4.25 0 13-.875 19.5-2 48-8.25 81.875-34.875 89.375-70.5 4.875-23.375-3.125-46.125-23.625-66.75l-11-11.125 4.375-6.375c19-27.625 56.5-65.625 92.875-94.375C796.75 48.5 803.25 42.75 802.75 42.25c-1-.875-35-4.375-60.25-6-10.75-.75-29.516-1.094-48-1.062M687.125 64c3.5-.125 6.75.25 7.125.875.375.5-4.5 4.875-10.875 9.625-14 10.375-32.75 26.375-47.875 40.875L624.25 126 610 122.375c-7.875-2-23.375-5-34.375-6.875-11-1.75-22.5-3.5-25.625-4l-5.625-1 10.375-8.25c11.25-8.875 31.625-20 45.875-25.125 12-4.25 34.875-9.25 50-10.875 11.375-1.125 17.125-1.5 36.5-2.25m-151.062 78.5c7.218.047 16.437.688 25.437 1.875 12.125 1.625 35.25 6.875 36.75 8.5.25.25-4.375 6.375-10.375 13.5-13.5 16.125-28.125 35.875-41.5 55.875l-10.25 15.375L531 234.75c-18-10.125-24.875-36-17.875-66.75 1.75-7.75 7-20.75 9.5-23.875 1-1.125 6.219-1.672 13.438-1.625m772.562 23.75-41.75.125-40.5 57.375c-22.25 31.625-40.875 57.5-41.25 57.5s-3.25-1.75-6.25-3.75c-14.75-10-39.125-10.75-75.75-2.25-80.25 18.625-151.625 78.25-194.5 162.75l-9.5 18.75-10.875 6.5c-18.75 11.375-30.5 14.375-35.125 9.125-2-2-2.125-3.125-1.125-6 .75-1.875 20.125-32.625 43-68.375 23-35.625 43.625-68.5 45.75-73 13.75-27.5 3.25-46.375-29.5-52.75-21.25-4.25-62.375 1-94.875 12.125L807 287.5l-3.375-4.125c-8.5-10.375-28.125-16.125-43.75-12.75-18 3.75-34.125 14.625-67.375 45.625-12 11.125-25.5 23.375-30 27.125-11.75 9.75-28 17.5-41.875 19.875-6.125 1.125-11.5 2.25-11.75 2.5-1.25 1.125 4.375 10.875 8.25 14.25 4.875 4.25 10.5 5.625 20.625 4.625 14-1.25 38-15.125 59.625-34.5 5.75-5 8.625-7 7.625-5.125-1.25 2.25-100.25 145.75-122.75 177.75l-2.375 3.5h84.875l43.5-62.5c38.875-55.875 43.875-62.5 46.75-62.5 6.125 0 22.5-4.875 30.375-9 9.125-4.75 19.5-14.625 23.25-22 1.5-2.875 2.625-5.375 2.625-5.625s-3 0-6.5.625C791 367.75 782.5 365 782.5 358c0-3.875 7.25-17.375 12.75-23.625 15.875-18 56-17.125 56 1.25 0 5.625-3.25 11.25-25 42.5-24.125 34.5-53.75 79.25-64.375 96.875-14.25 23.625-16.625 30.875-12.625 38.5 6 11.5 22.25 17.875 45.75 18 20.125.125 46.125-8.375 86.875-28.5 16.625-8.125 21.375-10 22.125-8.75 6.625 11.875 23.625 24.75 39.375 29.875 13.875 4.625 22.5 5.875 39 5.875 24 0 46-6 66.375-18l9.375-5.375 4.75 5.375c13 14.875 45.125 20.625 70.375 12.875 11.25-3.5 18.875-7.375 31-15.875l9.875-6.875 2.625 3.625c7.375 10.375 19.125 17.75 34.125 21.25 6.625 1.625 11.875 1.875 23.125 1.25 27.125-1.5 52.125-10.25 84.625-29.875 6.875-4 10.75-5.75 11.125-4.875 1.125 3.625 10.75 14.25 16.875 18.875 15.5 11.75 36.125 17.625 61.5 17.625 24.875 0 48.25-6.5 67.75-18.75l8.125-5 5.375 6c13.75 15.25 45.125 20.5 72.125 12 20-6.375 35.625-16.25 54.625-34.75 7.125-7 37-41.125 66.625-76 29.5-34.875 56.125-65.625 59.25-68.375 8.875-7.75 13.875-7.75 9.75 0-1.125 2.25-28.5 42.25-61 89.125s-60 86.625-61.25 88.5l-2.25 3.5h84.625l43.75-62.5c37.75-53.875 44.125-62.5 46.875-62.5 6.125-.125 19.5-3.875 28.125-8.125 9.375-4.5 18.625-12.5 23.5-20.25 5.125-8.375 5.125-8.875-.75-7.75-8.625 1.625-17.625 1.25-20.625-.875-9.875-6.875 8.625-34.5 28.375-42.25 10.75-4.125 28-2.25 34.5 3.75 3.875 3.625 4.25 11.625.75 18.125-1.25 2.375-10.375 15.875-20.125 29.875-38.5 55.25-69.75 103.625-74.125 114.75-3.25 8-2.875 21 .75 27.875 5.625 10.625 18.625 17.375 33.75 17.375 16.75 0 49.25-9.125 70.25-19.625 18.75-9.375 32.5-19.625 49.125-36.125 8.375-8.5 15.25-16 15.25-16.625 0-.75-2.625-.125-5.875 1.25-24.875 10.75-49.125 18.625-57.875 18.625-2.5 0-5.625-.75-6.875-1.75-3.25-2.375-3-9.625.375-17.375 1.375-3.25 20.875-33.875 43.125-68 22.25-34.25 42-65.25 43.875-68.75 12.875-25.625 6-43.375-20.25-51.75-21.75-6.875-61.625-3.5-99.375 8.5L1854.5 286.5l-2.625-3c-10.625-12.375-30.75-17.625-50.875-13.375-31.875 6.875-76.875 42.5-126 99.875-28.5 33.375-73.25 83-83.125 92.25-13.5 12.875-23.125 16.5-21.5 7.875.375-1.875 29.625-47 64.875-100.25 35.375-53.25 64.625-97.5 65.25-98.375.75-1.125-7.75-1.5-40.5-1.5h-41.25l-3.875 6.25-3.875 6.25-4.25-3.75c-24.75-21.75-110.875-3.25-167.375 36-43.125 29.875-80.5 73.75-104.375 122.375l-7.5 15.125-11 6.875c-25.625 16.125-38.375 19.375-43.625 11.375-1.75-2.75-1.75-3.625-.125-7.75 1-2.625 30.375-46.625 65.25-97.75l63.375-93.125-39-.375c-30.25-.25-39.5.125-40.625 1.25-.75.875-19.875 29.125-42.375 62.625-22.5 33.625-47.5 69.625-55.625 80-16 20.5-41.125 46.25-52.75 54-12.75 8.375-24.625 7-23.125-2.625.5-2.5 36.75-57 99.375-148.75 54.25-79.75 99.625-146.375 100.875-148.375l2.125-3.375zm100 13.938c-4.516 0-9.25.562-14.5 1.687-10.375 2.25-24.5 9.875-29.75 16-6 6.875-9.625 15.5-9.75 22.375-.125 4.75.625 6.875 3.625 10.625 6.125 7.75 14 10.875 28.5 11.375 29.125 1.25 48.125-10 53.75-31.5 3.875-14.625-2.75-24.75-18.625-28.875-4.437-1.125-8.734-1.687-13.25-1.687m-735.437 8.125c.61-.086 1.125.312 1.812.812 1.375.875 4.125 3.75 6.125 6.375 5.75 7.125 8.125 14.625 7.25 22.625C687 232 674.75 248 660.75 254.5c-6.875 3.125-25.25 6.375-28.75 5.125-2.125-.875 1.25-7 25.875-48.375 10.781-18.187 13.479-22.68 15.313-22.937m467.5 123.78c4.14-.024 7.523.766 10.062 2.407 3.875 2.375 4.625 7.25 2.5 14.875-3.875 13.125-16.5 28.25-28.125 33.625-4.875 2.25-7.875 2.625-19.5 2.5-8.875-.125-15.875-.875-19.875-2.125l-6.125-2 .875 5.875c1.5 11.125 10.375 24.75 21.25 32.25l3.5 2.5-8.375 13.75c-10.5 16.875-18 26.5-29.125 37-10.75 10.125-17.625 14.875-29.375 20.375-18.625 8.875-36.75 8.75-44.5-.125-3.375-3.75-3.875-5.25-3.875-11.875 0-6.75.75-9 8.5-24 26.375-51.5 65-93.125 104.75-113.125 15.555-7.82 28.33-11.852 37.438-11.906m425.562.594c3.24-.06 6.14.329 8.625 1.188 7.125 2.5 8.375 9.875 3.375 20.625-4.125 8.875-18.125 23.375-26.375 27.5-8.875 4.25-22.625 5.25-35.5 2.5-5.125-1.125-9.5-1.75-9.875-1.5-1 1 3.75 15.125 6.875 20.375 1.625 2.875 6.375 8.375 10.625 12.25l7.5 7-8.5 13.25c-26 40.75-53.375 62.375-81.25 63.875-18.625 1-26.625-5.625-25.125-20.625 1.75-16.625 34-67.875 59.5-94.625 28.219-29.422 67.445-51.389 90.125-51.812m412.594 184.75c-6.451 0-11.986 2.3-16.594 6.907-4.608 4.606-6.906 10.15-6.906 16.594q-.002 9.732 6.875 16.625c4.586 4.594 10.13 6.875 16.625 6.875 6.473 0 11.997-2.29 16.594-6.907 4.596-4.617 6.906-10.15 6.906-16.593 0-6.422-2.299-11.946-6.906-16.563-4.608-4.617-10.143-6.937-16.594-6.937m0 4.532c5.112 0 9.482 1.842 13.125 5.562 3.642 3.72 5.469 8.203 5.469 13.406 0 5.226-1.827 9.687-5.47 13.407s-8.012 5.594-13.124 5.593c-5.135 0-9.525-1.864-13.156-5.562s-5.438-8.167-5.438-13.437c0-5.204 1.826-9.687 5.469-13.407 3.642-3.72 8.012-5.562 13.125-5.562m-9.094 5.375v27.187h5.656V523.47h3.688l4.531 11.062h6.094l-5.563-12.187c2.875-1.462 4.313-3.808 4.313-7.063 0-5.292-3.196-7.937-9.625-7.937zm5.656 4.125h3.219c2.83 0 4.25 1.238 4.25 3.719q-.002 4.186-4.281 4.187h-3.188z" style="fill:#961923;fill-opacity:1;stroke:none" transform="translate(-3.18 -1.75)scale(.1634)"/></g></svg>