<?xml version="1.0" encoding="UTF-8"?>
<!-- Generator: Adobe Illustrator 27.0.1, SVG Export Plug-In . SVG Version: 6.00 Build 0)  -->
<svg version="1.1" id="Layer_1" xmlns="http://www.w3.org/2000/svg" xmlns:xlink="http://www.w3.org/1999/xlink" x="0px" y="0px" viewBox="0 0 504 180" style="enable-background:new 0 0 504 180;" xml:space="preserve"><script xmlns=""/>
<style type="text/css">
	.st0{fill:#FFFFFF;}
</style>
<g>
	<g>
		<path class="st0" d="M53.82,176.99h-7.43v-14.32l-6.73,8.3h-0.59l-6.75-8.3v14.32H25.1v-24.74h6.74l7.61,9.3l7.64-9.3h6.74V176.99    z"/>
		<path class="st0" d="M107,164.61c0,2.31-0.53,4.43-1.6,6.37c-1.06,1.94-2.65,3.48-4.75,4.62c-2.11,1.14-4.67,1.71-7.69,1.71    c-3.06,0-5.64-0.59-7.76-1.78c-2.12-1.19-3.69-2.75-4.72-4.69c-1.03-1.94-1.54-4.02-1.54-6.23c0-2.22,0.51-4.3,1.53-6.24    c1.02-1.93,2.6-3.49,4.72-4.67c2.12-1.19,4.71-1.78,7.77-1.78c2.28,0,4.32,0.34,6.11,1.02c1.79,0.68,3.26,1.6,4.42,2.76    c1.15,1.16,2.03,2.51,2.62,4.05C106.7,161.28,107,162.91,107,164.61z M99.41,164.61c0-0.93-0.14-1.78-0.41-2.54    c-0.27-0.77-0.69-1.43-1.24-2c-0.55-0.57-1.23-1.01-2.03-1.32c-0.8-0.31-1.72-0.47-2.77-0.47c-2,0-3.57,0.58-4.71,1.75    c-1.14,1.17-1.71,2.7-1.71,4.59c0,1.89,0.57,3.43,1.72,4.6c1.15,1.17,2.72,1.76,4.7,1.76c1.37,0,2.53-0.27,3.5-0.81    c0.96-0.54,1.7-1.29,2.19-2.25C99.16,166.94,99.41,165.85,99.41,164.61z"/>
		<path class="st0" d="M153.71,158.27h-9.06v18.72h-7.43v-18.72h-9.06v-6.02h25.55V158.27z"/>
		<path class="st0" d="M202.92,164.61c0,2.31-0.53,4.43-1.6,6.37c-1.06,1.94-2.65,3.48-4.75,4.62c-2.11,1.14-4.67,1.71-7.69,1.71    c-3.06,0-5.64-0.59-7.76-1.78c-2.12-1.19-3.69-2.75-4.72-4.69c-1.03-1.94-1.54-4.02-1.54-6.23c0-2.22,0.51-4.3,1.53-6.24    c1.02-1.93,2.6-3.49,4.72-4.67c2.12-1.19,4.71-1.78,7.77-1.78c2.28,0,4.32,0.34,6.11,1.02c1.79,0.68,3.26,1.6,4.42,2.76    c1.15,1.16,2.03,2.51,2.62,4.05C202.62,161.28,202.92,162.91,202.92,164.61z M195.32,164.61c0-0.93-0.14-1.78-0.41-2.54    c-0.27-0.77-0.69-1.43-1.24-2s-1.23-1.01-2.03-1.32c-0.8-0.31-1.72-0.47-2.77-0.47c-2,0-3.57,0.58-4.71,1.75    c-1.14,1.17-1.71,2.7-1.71,4.59c0,1.89,0.57,3.43,1.72,4.6c1.15,1.17,2.72,1.76,4.7,1.76c1.37,0,2.53-0.27,3.5-0.81    c0.96-0.54,1.7-1.29,2.19-2.25C195.07,166.94,195.32,165.85,195.32,164.61z"/>
		<path class="st0" d="M251.94,176.99h-8.01l-1.94-4.38c-0.71-1.6-1.36-2.77-1.93-3.52s-1.13-1.22-1.67-1.42    c-0.54-0.21-1.24-0.31-2.1-0.31h-0.84v9.63h-7.43v-24.74h12.67c2.04,0,3.72,0.42,5.02,1.25c1.31,0.84,2.25,1.85,2.82,3.04    c0.58,1.19,0.86,2.32,0.86,3.4c0,1.25-0.24,2.31-0.72,3.17c-0.48,0.86-0.99,1.49-1.52,1.89c-0.53,0.39-1.14,0.77-1.8,1.13    c0.8,0.46,1.45,1.01,1.97,1.65c0.52,0.64,1.22,1.92,2.11,3.86L251.94,176.99z M241.81,160.08c0-1.14-0.37-1.93-1.12-2.38    c-0.75-0.45-1.97-0.67-3.66-0.67h-1.57v5.94h1.61c1.82,0,3.07-0.2,3.74-0.6C241.48,161.96,241.81,161.2,241.81,160.08z"/>
		<path class="st0" d="M297.94,175.14c-1.02,0.54-2.07,0.96-3.14,1.29c-1.07,0.32-2.15,0.55-3.24,0.69c-1.09,0.14-2.22,0.2-3.38,0.2    c-2.15,0-4.08-0.3-5.79-0.89c-1.71-0.59-3.19-1.47-4.44-2.63c-1.26-1.16-2.19-2.52-2.82-4.07c-0.63-1.55-0.94-3.26-0.94-5.12    c0-2.13,0.37-3.99,1.11-5.6c0.74-1.6,1.77-2.93,3.09-3.99c1.33-1.06,2.84-1.84,4.53-2.35c1.69-0.51,3.48-0.76,5.36-0.76    c2.81,0,5.99,0.62,9.54,1.87v6.56c-1.23-0.76-2.44-1.39-3.63-1.9c-1.19-0.51-2.6-0.76-4.22-0.76c-1.44,0-2.78,0.29-4.03,0.86    c-1.25,0.57-2.25,1.39-3.01,2.45c-0.76,1.06-1.14,2.3-1.14,3.71c0,1.25,0.33,2.4,1,3.44c0.67,1.04,1.59,1.87,2.77,2.48    c1.18,0.61,2.52,0.92,4,0.92c1.2,0,2.34-0.15,3.41-0.44c1.07-0.29,1.97-0.61,2.7-0.97c0.73-0.36,1.48-0.78,2.26-1.27V175.14z"/>
		<path class="st0" d="M347.52,152.25l-9.68,13.4v11.33h-7.43V165.8l-9.86-13.55h7.74l5.66,7.8l5.68-7.8H347.52z"/>
		<path class="st0" d="M391.88,175.14c-1.02,0.54-2.07,0.96-3.14,1.29c-1.07,0.32-2.15,0.55-3.24,0.69c-1.09,0.14-2.21,0.2-3.38,0.2    c-2.15,0-4.08-0.3-5.79-0.89c-1.71-0.59-3.19-1.47-4.44-2.63c-1.25-1.16-2.19-2.52-2.82-4.07c-0.62-1.55-0.94-3.26-0.94-5.12    c0-2.13,0.37-3.99,1.11-5.6c0.74-1.6,1.77-2.93,3.09-3.99c1.33-1.06,2.84-1.84,4.53-2.35c1.69-0.51,3.48-0.76,5.36-0.76    c2.81,0,5.99,0.62,9.54,1.87v6.56c-1.22-0.76-2.43-1.39-3.63-1.9c-1.19-0.51-2.6-0.76-4.22-0.76c-1.44,0-2.78,0.29-4.03,0.86    c-1.25,0.57-2.25,1.39-3.01,2.45c-0.76,1.06-1.14,2.3-1.14,3.71c0,1.25,0.33,2.4,1,3.44c0.67,1.04,1.59,1.87,2.77,2.48    c1.18,0.61,2.52,0.92,4,0.92c1.2,0,2.34-0.15,3.41-0.44c1.07-0.29,1.97-0.61,2.7-0.97c0.73-0.36,1.48-0.78,2.26-1.27V175.14z"/>
		<path class="st0" d="M436.13,176.99h-18.76v-24.74h7.43v18.8h11.33V176.99z"/>
		<path class="st0" d="M479.57,176.99h-18.61v-24.74h18.31v4.98h-10.88v4.52h10.38v4.98h-10.38v5.27h11.18V176.99z"/>
	</g>
	<g>
		<g>
			<path class="st0" d="M346.15,55.69c0,0,10.29,0.2,12.36-8.49c0,0,2.32-7.78-9.35-7.43c0,0-11.53,0.66-12.71,10.08     C336.46,49.84,336.03,55.72,346.15,55.69z"/>
			<g>
				<path class="st0" d="M140.65,5.34c-6.98,1.7-12.33,3.97-15.86,5.75c-5.57,2.97-9.69,6.34-12.69,9.81      c-22.8,0.7-39.38,4.3-48.2,12.62c-5.5,4.8-7.83,11.29-6.07,18.48c1.5,6.11,7.41,11.57,16.86,12.57l0,0.02      c0.17,0.02,0.33,0.04,0.51,0.06c0.45,0.04,0.89,0.08,1.35,0.11c0.68,0.04,1.36,0.06,2.04,0.07c0.86,0.01,1.72-0.01,2.58-0.05      c0.99-0.05,1.98-0.14,2.96-0.27c1.08-0.14,2.14-0.32,3.2-0.56c1.1-0.25,2.19-0.56,3.26-0.95c1.09-0.39,2.16-0.86,3.18-1.41      c1.04-0.57,2.03-1.22,2.95-1.97c0.94-0.78,1.81-1.66,2.56-2.62c0.79-1.02,1.47-2.15,1.98-3.34c-0.28,0.12-14.61,4.62-22.05-0.04      c-5.08-3.17-3.39-8.7-2.05-10.93c1.1-1.94,4.38-5.55,11.31-8.37c3.81-1.58,9.86-3.46,17.9-4.01c-0.08,0.21-0.15,0.43-0.23,0.64      c-1.35,3.94-7.31,24.96,15.3,36.55l-0.25,0.52c-5.56,12.51-11.98,22.03-18.61,29.3c-8.82,10.16-19.23,17.92-30.54,22.02      c-12.32,4.28-22.9,3.34-27.03,2.7c-3.01-0.55-6-1.41-8.79-2.71c-11.74-5.49-13.6-14.53-13.85-18.15      c-0.02-0.51-0.03-1.03-0.02-1.57c0.18-9.62,8.27-14.15,14.11-16.18c2.51-0.75,8.13-2.05,13.73-0.69      c0.06,0.02,0.11,0.03,0.17,0.05c2.94,0.87,5.03,2.87,5.16,5.29c0.01,0.24,0,0.47-0.03,0.71c0,0.06,0,0.11,0,0.18      c0,0-0.02,0.07-0.05,0.16c-0.45,2.38-2.81,4.39-5.98,5.17c-2.13,0.63-5.79,1.21-10.55,1.15c4.18,4.34,11.26,7.27,16.88,7.73      c6.3,0.74,14.19,0.11,19.9-4.95c7.42-6.58,4.18-24.63-30.53-24.92C16.77,73.08,3.65,88.12,2.52,98.98c0,0-2.15,11.95,7.9,21.87      c3.69,3.78,10.86,8.16,21.59,11.05c4.78,1.37,10.42,2.34,17.07,2.59c4.86,0.3,10.28,0.22,16.32-0.4      c6.52-0.76,16.58-2.55,26.67-6.7c11.26-4.92,25.62-13.9,38.16-30.18c8-11.03,15.56-24.1,16.03-25.33c0,0,11.54,0.35,20.16-5.36      c0.84-0.53,2.52-1.67,4.2-3.32c0.26-0.27,0.61-0.64,0.97-1.03c1.79-2.03,2.9-3.96,3.48-5.2c4.35-10.69-2.5-18.57-5.6-21.44      c-0.79-0.66-1.57-1.29-2.32-1.87l0.97-1.5c0.13-0.19,0.27-0.37,0.4-0.55c0,0,0.26-0.35,0.26-0.35      c6.33-8.65,12.1-13.88,19.9-20.81c2.51-1.98,5.02-3.96,7.43-5.88l0.06-0.05C171.32,1.42,153.39,2.6,140.65,5.34z M130.33,50.68      c-1.16,1.67-1.97,2.96-2.46,3.74c-0.29-0.15-1.02-0.53-1.1-0.57c-0.02-0.01-0.04-0.02-0.06-0.03c-0.08-0.04-0.17-0.09-0.26-0.15      c-0.02-0.01-0.04-0.02-0.06-0.03c-2.06-1.22-6.08-4.79-5.04-13.65c0.27-4.68,2.3-8.46,3.3-10.01c3.24-0.08,11.93,0.02,19.34,2.8      C138.02,39.52,133.5,45.8,130.33,50.68z M165.73,52.75c-3.56,6.9-10.12,7.53-14.11,7.17c2.9-5.09,6.96-12.09,11-18.6      C165.86,43.95,168.31,47.76,165.73,52.75z M150.36,26.02c-7.1-2.1-14.03-3.16-18.46-3.66c-0.72-0.12-1.41-0.21-2.06-0.26      c12.06-11.64,29.58-12.21,39.24-11.96C161.39,15.47,156.02,20.37,150.36,26.02z"/>
			</g>
		</g>
		<g>
			<path class="st0" d="M494.93,123.75h0.19c0.72-0.04,0.97,0.39,0.97,0.9c0,0.6-0.25,1.04-0.91,1.04l-0.25-0.01V123.75z      M494.93,129.81v-3.34h0.02l1.26,3.34h1.5l-1.26-3.29c0.71-0.4,1.03-1.07,1.03-1.87c0-1.98-1.63-2.08-2.54-2.08h-1.43v7.24     H494.93z"/>
			<path class="st0" d="M489.4,126.26c0,3.38,2.75,6.14,6.14,6.14s6.14-2.75,6.14-6.14c0-3.39-2.75-6.14-6.14-6.14     S489.4,122.87,489.4,126.26z M490.99,126.26c0-2.5,2.04-4.54,4.54-4.54c2.5,0,4.54,2.04,4.54,4.54c0,2.5-2.04,4.54-4.54,4.54     C493.03,130.8,490.99,128.76,490.99,126.26z"/>
		</g>
	</g>
	<path class="st0" d="M476.98,109.22l19.41-29.78c11.35-17.53-11.03-16.85-11.03-16.85C473.94,62.82,464,66.99,464,66.99   c-3.85-5.66-10.99-4.61-10.99-4.61c-14.34,0.15-35.56,26.68-35.56,26.68c-3.92,4.7-17.61,19.91-17.61,19.91l-1.64,1.67   c-1.04,1.13-3.1,2.8-3.1,2.8c-1.28,1.22-3.12,1.66-3.49,1.35c-0.84-0.52,0.3-2.47,0.3-2.47l33.02-49.77l-20.99,0.01l-2.03,3.3   c-4.21-4.69-13.22-3.21-13.22-3.21c-43.12,4.98-58.9,46.34-58.9,46.34c-1.28,0.88-3.39,2.15-3.39,2.15   c-5.02,3.21-7.35,3.97-9.23,3.62c-3.35-0.71-1.22-4.08-1.22-4.08l32.59-47.83l-20.09,0.01c0,0-17.3,25.75-17.3,25.74   c-0.02,0.03-0.04,0.06-0.05,0.09l-3.47,5.16c-3.59,4.97-7.72,9.98-7.72,9.98c-7.85,8.74-12.52,11.95-14.7,11.13   c-2.51-0.75-1.22-3.33-1.22-3.33l51.43-75.48l-21.17,0.02l-20.99,29.71c-4.2-4.69-13.22-3.21-13.22-3.21   c-43.12,4.98-59.39,47.34-59.39,47.34c-10.27,7.12-12.18,4.98-12.5,3.51c0-0.03,0-0.04-0.01-0.06c-0.13-0.49,0.22-1.19,0.38-1.47   l20.76-32.34c11.36-17.52-11.02-16.85-11.02-16.85c-11.43,0.23-21.36,4.4-21.36,4.4c-3.14-4.62-8.47-4.77-10.33-4.67   c-0.17,0.02-0.36,0.04-0.56,0.06c-4.73,0.43-9.99,4.41-12.63,6.68c-0.31,0.26-0.6,0.54-0.91,0.81c-0.08,0.06-0.15,0.12-0.23,0.18   l-5.6,5.17l-2.63,2.45c-2.97,2.68-8.58,8.87-17.78,8.91c0.06,0,0.03,0.05,0.05,0.12c2.82,10.26,15.52,3.35,25.07-6.18   c0.03,0.04,0.05,0.1,0.01,0.24c-0.06,0.22-0.18,0.44-0.27,0.61c-0.17,0.33-0.37,0.65-0.58,0.96c-0.26,0.39-0.54,0.77-0.8,1.16   l-30.75,44.34l21.58-0.06l22.13-31.81c0,0,0,0,0,0l0.01,0.01c4.6-0.43,12.34-2.24,15.3-9.52c-0.78,0.2-3.13,0.65-5.25,0.55   c-1.08-0.12-3.46-0.81-1.26-4.75c0.04-0.07,0.07-0.13,0.11-0.2l0.44-0.67c1.22-2,2.16-3.33,3.84-4.29   c2.46-1.39,6.72-2.88,10.78-0.64c3.08,1.7,0.98,5.3-0.21,6.95c-17.72,25.3-22.8,33.91-24.18,37.09c-0.21,0.58-0.47,1.45-0.47,2.29   c0.04,0.88,0.34,1.91,1.25,2.9c0.03,0.03,0.06,0.06,0.08,0.09c0.03,0.03,0.05,0.06,0.08,0.09c2.96,3.29,10.25,3.27,10.25,3.27   c8.81,0.62,27.91-10.11,27.91-10.11c6.22,11,21.17,9.66,21.17,9.66c10.57-0.03,18.47-6.21,18.47-6.21   c3.11,6.15,13.24,5.8,13.24,5.8c6.6-0.02,11.34-3.27,12.75-4.24c1.4-0.98,3.59-2.5,3.59-2.5c4.89,8.41,15.79,6.65,15.79,6.65   c5.85-0.02,13.84-3.25,19.93-6.95c2.25-1.29,3.68-2.21,3.68-2.21c6.22,11,21.18,9.66,21.18,9.66c10.57-0.03,18.47-6.21,18.47-6.21   c3.11,6.15,13.24,5.8,13.24,5.8c6.6-0.02,12.32-3.62,12.32-3.62c2-1.26,3.63-2.4,4.86-3.35l3.63-3.37c0.81-0.8,2.45-2.44,4.41-4.72   l22.31-26.34c2.61-3.22,4.51-5.45,6.27-6.44c3.51-1.9,0.17,2.87,0.17,2.87l-30.75,44.35l21.57-0.06c0,0,20.53-29.3,20.54-29.3   l1.52-2.32c4.6-0.43,12.31-2.25,15.27-9.51c-0.78,0.2-3.13,0.65-5.25,0.55c-1.08-0.12-3.46-0.81-1.25-4.75   c0.1-0.19,0.19-0.36,0.27-0.52c0.45-0.68,1.02-1.46,1.75-2.36c0.02-0.03,0.04-0.04,0.06-0.07l0,0.02c0,0,1.84-2.43,4.69-3.56   c0.12-0.05,0.21-0.09,0.31-0.13c2.38-0.82,5.4-1.15,8.32,0.47c3.08,1.7,0.98,5.3-0.22,6.95c-0.03,0.05-0.07,0.09-0.1,0.14   c0,0.01-0.03,0.03-0.03,0.03c-13.41,19.06-19.53,28.63-22.3,33.56c-0.42,0.84-0.9,2.03-1.14,3.41c-0.35,2.56,0.01,6.41,4.57,8.56   c5.28,2.49,15.48-1.02,20.64-3.11c2.4-1.05,10.48-4.98,16.8-12.46c0.68-0.83,1.29-1.63,1.85-2.4c-3.18,1.53-8.92,4.06-14.57,5.35   c-6.91,1.57-3.93-4.41-2.63-6.63C476.89,109.4,477,109.23,476.98,109.22z M282.79,82.32c-1,1.36-1.87,2.15-2.4,2.56   c-4.43,3.72-11.27,2.08-13.88,1.08c0.02,0.49,0.06,0.97,0.15,1.45c0.05,0.27,0.11,0.55,0.18,0.81c0.44,2.32,2.57,5.9,6.18,7.92   c-1.53,2.6-3.96,6.48-4.03,6.59c-0.68,0.97-1.39,1.92-2.13,2.84c-0.89,1.08-1.83,2.13-2.82,3.12c-0.86,0.86-1.77,1.68-2.71,2.44   c-0.82,0.66-1.68,1.28-2.57,1.84c-0.76,0.49-1.55,0.93-2.37,1.33c-0.7,0.34-1.41,0.64-2.14,0.89c-0.6,0.22-1.22,0.4-1.84,0.56   c-0.5,0.12-1.01,0.21-1.52,0.28c-0.38,0.05-0.76,0.09-1.13,0.1c-0.24,0.01-0.48,0.02-0.71,0c-0.08,0-0.16-0.01-0.24-0.02   c-8.16-0.3-4.67-8.08-4.67-8.08c16.12-33.1,37.52-34.86,37.52-34.86c7.89-0.05,1.48,8.72,1.48,8.72   C283.01,82.05,282.9,82.19,282.79,82.32z M387.63,85.72l0-0.01c-4.06,2.49-9.83,1.31-12.36,0.39c0,0.05,0,0.13,0.01,0.27   c0,0.01,0.01,0.18,0.01,0.19c0.08,1.46,1.54,6.94,6.49,9.64c0.02,0.01,0.04,0.02,0.06,0.03c-0.13,0.21-0.25,0.38-0.39,0.55   l-1.79,2.75c-0.19,0.31-0.41,0.66-0.67,1.08c-0.9,1.41-1.85,2.8-2.88,4.13c-0.89,1.16-1.82,2.28-2.82,3.34   c-0.87,0.92-1.78,1.8-2.73,2.63c-0.83,0.71-1.69,1.39-2.6,2.01c-0.77,0.53-1.58,1.02-2.4,1.46c-0.71,0.38-1.43,0.71-2.18,1   c-0.62,0.25-1.26,0.46-1.9,0.63c-0.52,0.14-1.04,0.26-1.58,0.35c-0.4,0.06-0.81,0.11-1.21,0.14c-0.27,0.01-0.54,0.02-0.8,0.01   c-0.12,0-0.23-0.01-0.35-0.02c-8.15-0.3-4.67-8.09-4.67-8.09c16.11-33.1,37.22-34.86,37.22-34.86c7.9-0.05,2.61,7.33,2.61,7.33   c-0.3,0.38-0.61,0.76-0.93,1.13c-1.04,1.28-1.98,2.21-2.7,2.83c-0.15,0.14-0.31,0.27-0.47,0.39c-0.02,0.02-0.05,0.04-0.07,0.05   c-0.2,0.16-0.41,0.31-0.62,0.46C387.74,85.66,387.63,85.72,387.63,85.72z"/>
</g>
</svg>