<svg width="1020" height="311" viewBox="0 0 1020 311" fill="none" xmlns="http://www.w3.org/2000/svg">
<path fill-rule="evenodd" clip-rule="evenodd" d="M865.984 3.66667C861.115 3.92708 850.885 4.95833 844.172 6.57292C796.177 18.1875 761.438 52.0885 736.526 93.3125H857.646C859.375 92.7344 861.146 92.2083 862.958 91.7448C866.62 90.8542 870.693 90.1562 874.464 90.1562C913.958 90.1562 953.578 89.4688 993.083 89.0938L1019.37 3.48958L865.984 3.66667ZM723.99 116.229C713.995 136.417 705.99 157.604 699.641 178.286C690.13 209.281 682.156 250.813 702.63 279.224C721.115 304.885 755.63 309.823 784.656 309.823L788.828 309.792L935.224 309.974L961.672 223.823L828.776 224.031C808.365 224.031 793.708 218.609 787.5 208.781C780.391 197.505 785.323 181.198 790.307 170.047C798.797 151.01 809.042 131.375 823.198 116.229H723.99ZM316.714 0H215.823L150.958 93.3125H247.87L248.042 93.0521L248.083 93.3125H334.375L316.714 0ZM135.031 116.229L0 310.484H105.464L232.844 116.229H135.031ZM251.542 116.229L280.839 310.484H375.479L338.708 116.229H251.542ZM454.401 0L430.797 93.3125H519.505L525.078 71.5938H592.172C610.688 71.5938 624.016 80.3854 625.839 93.3125H717.042C717.078 92.151 717.094 90.974 717.094 89.7917C717.094 39.4427 672.224 0 614.932 0H454.401ZM425 116.229L375.87 310.495H464.385L491.188 205.589H569.417C632.125 205.589 699.036 177.422 714 116.229H619.115C608.823 128.828 589.062 133.99 573.453 133.99H509.073L513.63 116.229H425Z" fill="#FFFFFF"/>
</svg>
